<svg xmlns="http://www.w3.org/2000/svg" width="40" height="40" viewBox="0 0 40 40">
  <g id="en-icon" transform="translate(-24 -18)">
    <circle id="Ellipse_259" data-name="Ellipse 259" cx="20" cy="20" r="20" transform="translate(24 18)" fill="#fff"/>
    <g id="Group_8975" data-name="Group 8975" transform="translate(-59.395 -17.733)">
      <g id="Group_8975-2" data-name="Group 8975">
        <path id="Path_53804" data-name="Path 53804" d="M96.789,64.5a.508.508,0,0,1-.191-.038A.5.5,0,0,1,96.289,64V61.1h-.447a1.449,1.449,0,0,1-1.447-1.448V50.182a1.449,1.449,0,0,1,1.447-1.448h14.211a1.449,1.449,0,0,1,1.447,1.448v9.473a1.449,1.449,0,0,1-1.447,1.448h-9.658l-3.252,3.251A.5.5,0,0,1,96.789,64.5Zm-.947-14.766a.448.448,0,0,0-.447.448v9.473a.448.448,0,0,0,.447.448h.947a.5.5,0,0,1,.5.5v2.19l2.543-2.543a.5.5,0,0,1,.355-.147h9.866a.448.448,0,0,0,.447-.448V50.182a.448.448,0,0,0-.447-.448Z" fill="#389741"/>
      </g>
      <g id="Group_8976" data-name="Group 8976">
        <path id="Path_53805" data-name="Path 53805" d="M103.391,50.963a.474.474,0,0,0-.887,0l-2.842,7.579a.474.474,0,0,0,.887.333l.595-1.588h3.607l.6,1.588a.474.474,0,0,0,.444.307.486.486,0,0,0,.166-.03.474.474,0,0,0,.277-.61ZM101.5,56.34l1.448-3.862L104.4,56.34Z" fill="#389741"/>
      </g>
    </g>
  </g>
</svg>
