<svg xmlns="http://www.w3.org/2000/svg" width="40" height="40" viewBox="0 0 40 40">
  <g id="icon-error" transform="translate(-28.5 142.389)">
    <path id="Ellipse_258" data-name="Ellipse 258" d="M48.5-142.389a20,20,0,0,1,20,20,20,20,0,0,1-20,20,20,20,0,0,1-20-20,20,20,0,0,1,20-20" fill="#fff"/>
    <g id="Group_8983" data-name="Group 8983">
      <g id="Group_8981" data-name="Group 8981">
        <path id="Path_53808" data-name="Path 53808" d="M48.705-119.389h-.41A2.3,2.3,0,0,1,46-121.684v-7.409a2.3,2.3,0,0,1,2.295-2.3h.41a2.3,2.3,0,0,1,2.295,2.3v7.409A2.3,2.3,0,0,1,48.705-119.389Zm-.41-11a1.3,1.3,0,0,0-1.295,1.3v7.409a1.3,1.3,0,0,0,1.295,1.295h.41A1.3,1.3,0,0,0,50-121.684v-7.409a1.3,1.3,0,0,0-1.295-1.3Z" fill="#c00"/>
      </g>
      <g id="Group_8982" data-name="Group 8982">
        <path id="Path_53809" data-name="Path 53809" d="M48.5-113.389a2.5,2.5,0,0,1-2.5-2.5,2.5,2.5,0,0,1,2.5-2.5,2.5,2.5,0,0,1,2.5,2.5A2.5,2.5,0,0,1,48.5-113.389Zm0-4a1.5,1.5,0,0,0-1.5,1.5,1.5,1.5,0,0,0,1.5,1.5,1.5,1.5,0,0,0,1.5-1.5A1.5,1.5,0,0,0,48.5-117.389Z" fill="#c00"/>
      </g>
    </g>
  </g>
</svg>
