<?xml version="1.0" encoding="UTF-8"?>
<svg width="129px" height="71px" viewBox="0 0 129 71" version="1.1" xmlns="http://www.w3.org/2000/svg" xmlns:xlink="http://www.w3.org/1999/xlink">
    <title>logo</title>
    <g id="Page-1" stroke="none" stroke-width="1" fill="none" fill-rule="evenodd">
        <g id="logo" transform="translate(-0.000000, 0.000000)" fill="#FFFFFF" fill-rule="nonzero">
            <path d="M104.872,21.7798 C104.464,21.5125 104.03,21.2864 103.577,21.1049 L103.547,21.1049 L103.471,21.1187 L103.258,21.1719 L103.08,21.2227 L102.884,21.2898 L102.653,21.3776 C102.569,21.4123 102.488,21.4492 102.408,21.4885 L102.248,21.5694 C102.179,21.6041 102.112,21.6411 102.045,21.6804 C101.978,21.7197 101.913,21.7567 101.85,21.7983 C101.788,21.8399 101.696,21.8977 101.619,21.9485 L101.476,22.0502 C101.404,22.101 101.335,22.1542 101.268,22.2074 C101.201,22.2605 101.122,22.3253 101.053,22.3853 L100.921,22.5009 L100.78,22.6303 L100.63,22.776 L100.503,22.9077 C100.42,22.9932 100.341,23.0788 100.272,23.162 C100.202,23.2452 100.158,23.2914 100.108,23.3538 C100.006,23.4717 99.9181,23.5849 99.8418,23.6866 C99.7955,23.749 99.7516,23.8045 99.7146,23.8577 L99.569,24.068 C99.5112,24.1558 99.4812,24.2067 99.4766,24.2136 C99.4719,24.2206 99.4396,24.2783 99.4188,24.3084 C99.3748,24.3847 99.3286,24.4586 99.2824,24.5395 L99.2084,24.6597 C99.1599,24.7383 99.1113,24.8169 99.0651,24.8908 L98.9819,25.0295 L98.8941,25.1821 L98.8363,25.2861 C98.8224,25.3161 98.8062,25.3439 98.79,25.3739 C98.7832,25.389 98.7755,25.4037 98.7669,25.4178 L98.7669,25.4363 L98.7554,25.4594 C99.4284,25.7169 100.027,26.1369 100.498,26.6821 C100.762,27.0219 100.993,27.3755 101.282,27.7014 C101.418,27.8645 101.519,28.0531 101.58,28.2562 C101.763,28.7184 101.594,29.2246 101.691,29.7031 C101.723,29.87 101.742,30.0393 101.746,30.2093 C101.786,30.2268 101.821,30.2532 101.849,30.2865 C101.876,30.3198 101.896,30.3591 101.905,30.4012 C101.915,30.4433 101.915,30.4871 101.905,30.5292 C101.895,30.5713 101.876,30.6105 101.848,30.6438 C101.943,30.8333 102.213,32.4929 102.41,33.3111 C102.41,33.2926 102.431,33.2741 102.44,33.2533 L102.465,33.2048 L102.493,33.1516 L102.574,32.9898 L102.72,32.6963 L102.824,32.479 C102.884,32.3519 102.942,32.2224 103.002,32.0907 L103.126,31.8064 L103.267,31.4805 L103.429,31.0829 C103.464,30.9974 103.496,30.9119 103.531,30.8218 C103.61,30.6199 103.687,30.4188 103.762,30.2185 L103.785,30.1538 C103.799,30.1191 103.811,30.0844 103.822,30.0498 C103.901,29.8302 103.979,29.6083 104.053,29.3841 L104.076,29.3148 C104.137,29.1345 104.194,28.9519 104.252,28.767 L104.287,28.6583 C104.298,28.626 104.308,28.5913 104.319,28.559 C104.395,28.3093 104.467,28.062 104.539,27.8147 C104.539,27.7823 104.557,27.75 104.564,27.7199 C104.571,27.6899 104.59,27.6321 104.601,27.5882 L104.636,27.4634 C104.684,27.29 104.731,27.1144 104.777,26.9387 L104.805,26.8324 L104.832,26.7237 C104.832,26.696 104.849,26.666 104.855,26.6359 L104.89,26.4972 C104.946,26.2661 105.001,26.035 105.054,25.8177 C105.091,25.6582 105.128,25.4987 105.163,25.3369 L105.191,25.2144 C105.253,24.9255 105.318,24.6227 105.38,24.3061 C105.394,24.2437 105.406,24.1813 105.417,24.1189 C105.429,24.0564 105.433,24.0449 105.44,24.0079 C105.447,23.9709 105.468,23.8646 105.48,23.793 C105.524,23.5618 105.565,23.3446 105.604,23.1204 C105.604,23.0649 105.623,23.0071 105.634,22.947 C105.646,22.8869 105.66,22.7991 105.671,22.7159 C105.671,22.6835 105.683,22.6511 105.69,22.6188 L105.69,22.5911 L105.69,22.5772 C105.474,22.2586 105.196,21.9873 104.872,21.7798 Z M85.3647,32.9575 C85.3647,32.8927 85.3508,32.8257 85.3416,32.7564 C85.3323,32.687 85.3231,32.5876 85.3138,32.4998 L85.2861,32.2317 C85.2861,32.1785 85.2722,32.1231 85.2676,32.0676 C85.263,32.0121 85.2514,31.9173 85.2422,31.8364 L85.2214,31.6377 L85.2075,31.4967 L85.1821,31.2655 C85.1821,31.2078 85.1821,31.15 85.1659,31.0899 C85.1497,31.0298 85.1497,30.9466 85.1428,30.8726 C85.1359,30.7987 85.1312,30.7501 85.1243,30.69 L85.1104,30.5606 L85.0896,30.3526 C85.0896,30.2855 85.0781,30.2185 85.0711,30.1515 L85.0573,30.0174 C85.0573,29.955 85.0457,29.8926 85.0388,29.8302 C85.0318,29.7678 85.0249,29.673 85.0156,29.5991 C85.0156,29.5551 85.0157,29.5135 85.0041,29.4696 C84.9925,29.4257 84.9902,29.3356 84.9856,29.2685 L84.9717,29.1229 C84.9717,29.0813 84.9717,29.0397 84.9602,28.9981 C84.9486,28.9565 84.9602,28.9149 84.9486,28.8733 L84.9348,28.7184 L84.9209,28.5682 C84.9209,28.5335 84.9209,28.4989 84.9209,28.4619 L84.9001,28.2469 C84.9001,28.1591 84.8862,28.0713 84.877,27.9857 C84.8677,27.9002 84.8585,27.7546 84.8492,27.6413 L84.8354,27.4888 L84.8215,27.3131 C84.8215,27.2091 84.8053,27.1097 84.7984,27.015 C84.7984,26.867 84.7799,26.733 84.7706,26.6105 C84.7706,26.555 84.7706,26.5042 84.7706,26.4556 C84.7706,26.3516 84.7706,26.2569 84.7591,26.1783 C84.7504,26.0814 84.7504,25.9839 84.7591,25.887 C84.7741,25.8288 84.7834,25.7691 84.7868,25.7091 C84.7913,25.6321 84.7913,25.5549 84.7868,25.4779 C84.7868,25.3577 84.7868,25.2283 84.7683,25.0942 C84.7498,24.9602 84.7475,24.8631 84.7313,24.7314 C84.7313,24.662 84.7152,24.5927 84.7059,24.5233 C84.6967,24.454 84.6944,24.424 84.6874,24.3754 C84.6805,24.3269 84.6643,24.2159 84.6527,24.1443 C84.6412,24.0726 84.6412,24.0634 84.6366,24.0241 C84.632,23.9848 84.6181,23.9062 84.6111,23.8531 C84.595,23.749 84.5811,23.6612 84.5718,23.5942 C84.5718,23.5688 84.5718,23.5456 84.5718,23.5272 C84.5718,23.5087 84.5718,23.4809 84.5718,23.4694 C84.3522,24.3292 84.2575,27.8771 83.9385,28.7485 C83.6426,29.5551 83.7073,29.955 83.3814,30.7547 C83.4224,31.7891 83.2549,32.8212 82.8891,33.7895 C82.5793,35.3312 82.2095,36.302 81.6824,37.1271 L81.694,37.1271 L81.7217,37.1271 L81.7495,37.1271 L81.7749,37.1271 L81.8234,37.141 L81.8627,37.141 L81.9043,37.141 L81.9413,37.141 L81.9829,37.141 L82.0916,37.141 L82.1609,37.141 L82.221,37.141 L82.2811,37.1294 L82.3135,37.1294 L82.3944,37.1109 L82.4291,37.1109 L82.473,37.0971 L82.5123,37.0832 L82.5516,37.0693 L82.5793,37.0693 L82.607,37.0693 L82.6463,37.0555 L82.6741,37.0439 L82.7088,37.0277 L82.7272,37.0277 L82.7457,37.0277 C82.9076,36.8467 83.0574,36.6552 83.1942,36.4545 C84.3499,34.7672 84.2713,35.2549 85.3971,33.2348 L85.3971,33.1724 L85.3647,32.9575 Z M69.0569,19.6996 C68.3256,19.2113 67.4844,18.9127 66.609,18.8305 C66.4495,18.8166 65.6844,18.7496 65.5318,18.7288 L65.4185,18.8467 L65.3007,18.9715 C65.2406,19.0339 65.1828,19.0963 65.125,19.161 L65.0256,19.2696 L64.88,19.4338 L64.7066,19.6302 C64.6488,19.6949 64.591,19.7597 64.5355,19.8267 L64.3344,20.0578 C64.2905,20.1087 64.2466,20.1595 64.205,20.2127 L64.0478,20.3999 C63.9923,20.4692 63.9369,20.5409 63.8791,20.6102 L63.7011,20.8414 C63.6433,20.9153 63.5855,20.987 63.53,21.0725 L63.3798,21.2667 L63.248,21.4354 L63.0169,21.7451 L62.8851,21.9208 L62.6748,22.2027 L62.4066,22.5564 L62.2333,22.7875 C62.1778,22.8615 62.1246,22.9378 62.0691,23.0187 L62.0137,23.0972 L61.9859,23.1365 C63.0258,23.2944 63.976,23.8162 64.6673,24.6089 C64.9308,24.9463 65.162,25.3023 65.4509,25.6282 C65.5862,25.7909 65.6883,25.9786 65.7514,26.1806 C65.934,26.6428 65.7653,27.149 65.86,27.6298 C65.8936,27.7965 65.9122,27.9659 65.9155,28.136 C65.9545,28.1534 65.9889,28.1796 66.0162,28.2124 C66.0435,28.2453 66.0629,28.2839 66.073,28.3254 C66.083,28.3669 66.0834,28.4102 66.0742,28.4519 C66.0649,28.4935 66.0462,28.5325 66.0195,28.5659 C66.149,28.8224 66.29,28.9195 66.4449,28.8594 L66.6945,28.6815 C66.7985,28.6121 66.9002,28.5428 66.9996,28.4665 C67.1961,28.3255 67.3857,28.1799 67.5868,28.0458 C68.3657,27.5281 69.2048,27.0866 69.9977,26.6059 C70.0041,26.5868 70.0135,26.5689 70.0254,26.5527 C70.0149,26.2836 70.0319,26.014 70.0763,25.7484 C70.2011,25.0018 70.2681,24.2483 70.4161,23.5063 C70.5317,22.8405 70.4962,22.1572 70.312,21.507 C70.1432,20.7649 69.6933,20.117 69.0569,19.6996 Z M75.231,34.0299 C75.231,33.9675 75.2171,33.9028 75.2079,33.8358 C75.1894,33.667 75.1686,33.4775 75.1431,33.2718 C75.1177,33.0661 75.0946,32.8419 75.0669,32.6061 C75.0437,32.412 75.0206,32.2086 74.9975,32.0006 C74.9813,31.8711 74.9675,31.7417 74.9513,31.6099 C74.9282,31.4042 74.905,31.1916 74.8796,30.9789 L74.8311,30.5444 C74.8126,30.3664 74.7918,30.1885 74.7733,30.0105 C74.7502,29.7909 74.7247,29.5713 74.7039,29.3541 C74.6716,29.0698 74.6438,28.7878 74.6161,28.5174 C74.5884,28.2469 74.5699,28.0389 74.5491,27.8239 C74.5283,27.609 74.5075,27.3617 74.4936,27.1675 C74.4797,27.0127 74.4705,26.8694 74.4612,26.7376 C74.445,26.5065 74.4358,26.3054 74.4358,26.1575 C74.4358,26.1112 74.4358,26.0696 74.4358,26.035 C74.4345,26.0111 74.4345,25.9872 74.4358,25.9633 C74.4358,25.9471 74.4358,25.9333 74.4358,25.9217 C74.4358,25.9102 74.4358,25.9032 74.4358,25.894 C74.2601,26.5874 74.1862,28.0898 74.0868,29.1807 C74.022,29.9157 74.022,30.549 73.7655,31.2424 C73.5343,31.885 73.5736,32.2063 73.324,32.8419 C73.1358,33.6629 72.8957,34.4712 72.6051,35.2619 C72.2878,36.2977 71.8072,37.2761 71.1812,38.1603 L71.4123,38.1603 L71.4955,38.1603 L71.5996,38.1603 L71.6851,38.1603 L71.7567,38.1603 L71.8561,38.1464 L71.9232,38.1464 L72.011,38.1302 L72.0919,38.1164 L72.1728,38.1002 L72.2514,38.0817 L72.3323,38.0609 L72.4386,38.0332 L72.5034,38.0147 L72.5588,37.9985 L72.6189,37.98 L72.6837,37.9569 L72.7183,37.9569 L72.7438,37.9569 C72.9046,37.7999 73.0494,37.6272 73.176,37.4415 C73.9388,36.2973 74.5121,35.567 75.2356,34.3558 L75.2356,34.3003 C75.2448,34.164 75.2379,34.0993 75.231,34.0322 L75.231,34.0299 Z M52.6127,23.7444 C52.4116,23.6497 52.2845,23.4 52.1203,23.2359 C51.8765,22.9906 51.715,22.6756 51.658,22.3345 C51.4061,22.3853 51.4107,22.3715 51.1703,22.1889 C51.0039,22.0641 50.9022,21.8676 50.9091,21.4677 C50.775,21.7844 50.6571,21.7659 50.5439,21.6711 C50.1024,21.3083 49.6655,20.9315 49.224,20.5756 C48.9635,20.3521 48.6869,20.1482 48.3965,19.9654 C47.8879,19.6649 47.3424,19.48 46.8616,19.1032 C46.3808,18.7265 45.8584,18.782 45.4146,18.4098 C45.3707,18.3728 45.306,18.4098 45.2528,18.3821 C45.1349,18.3428 45.0216,18.2896 44.9037,18.2434 C44.7859,18.1972 44.6402,18.151 44.5131,18.0909 C44.2496,17.9684 43.9606,17.9568 43.7064,17.7904 C43.6016,17.7349 43.4852,17.7048 43.3666,17.7026 C43.1451,17.7034 42.925,17.6682 42.7147,17.5985 C42.454,17.467 42.1763,17.3721 41.8895,17.3166 C41.1281,17.12 40.3564,16.9657 39.578,16.8543 C39.4416,16.8404 39.3168,16.7734 39.1619,16.9306 C39.1157,16.9745 39.0047,16.9306 38.9886,16.8589 C38.9215,16.5677 38.7736,16.5839 38.6164,16.5792 C38.3116,16.5901 38.0067,16.5645 37.708,16.503 C37.4958,16.4511 37.2803,16.414 37.0631,16.392 C36.5152,16.3181 35.972,16.214 35.4311,16.0962 L34.5828,15.9482 L34.2569,16.0915 L33.8131,16.288 L33.1959,16.5677 L32.5024,16.8797 L31.9846,17.1108 L31.6079,17.2703 L31.3513,17.3767 C30.8335,17.5924 30.3242,17.8143 29.8234,18.0423 L29.2663,18.2966 C28.8317,18.5023 28.3971,18.7172 27.9626,18.9368 L27.5673,19.1402 C27.4517,19.2003 27.313,19.2673 27.1559,19.3436 C26.9363,19.4499 26.6797,19.5747 26.4,19.6996 L25.3829,20.1618 L24.6178,20.5039 L23.8804,20.8344 L23.2124,21.1326 L22.2624,21.5579 C22.0312,21.6665 21.8001,21.7705 21.592,21.8676 L21.0858,22.0987 L20.7367,22.2767 L20.7044,22.2952 C20.7044,22.2952 20.7044,22.3137 20.7044,22.3229 C20.6623,22.3401 20.6179,22.351 20.5726,22.3553 C21.6983,22.2259 24.063,21.893 24.3381,21.9185 C24.6228,21.9659 24.9133,21.9659 25.198,21.9185 C25.3352,21.8868 25.4784,21.894 25.6118,21.9393 C25.977,22.0756 26.4046,21.8376 26.7421,22.108 C26.7629,22.1242 26.7999,22.108 26.8253,22.0802 C26.8965,22.0008 26.9949,21.951 27.1011,21.9407 C27.2073,21.9305 27.3135,21.9604 27.3986,22.0248 C27.8077,22.2559 28.2561,22.2004 28.7092,22.1172 C28.8453,22.0789 28.9903,22.0878 29.1207,22.1427 C29.2074,22.1877 29.3028,22.2138 29.4004,22.2194 C29.498,22.225 29.5956,22.2098 29.687,22.175 C29.751,22.1422 29.8232,22.1288 29.8947,22.1366 C29.9662,22.1445 30.0338,22.1731 30.0892,22.2189 C30.1424,22.2679 30.2111,22.2965 30.2833,22.2998 C30.5145,22.2998 30.7318,22.2721 30.9537,22.2813 C31.1824,22.3233 31.4146,22.3442 31.6472,22.3437 C31.9257,22.3154 32.2066,22.365 32.4585,22.487 C32.5483,22.5354 32.6497,22.5582 32.7516,22.5529 C32.8536,22.5476 32.952,22.5144 33.0364,22.457 C33.1117,22.4142 33.1963,22.3904 33.2829,22.3875 C33.3695,22.3847 33.4554,22.403 33.5334,22.4408 C33.7609,22.4951 33.9931,22.5276 34.2268,22.5379 C34.2938,22.5379 34.3724,22.5055 34.4325,22.5379 C34.538,22.5905 34.6568,22.6101 34.7736,22.594 C34.8903,22.5779 34.9994,22.5269 35.0867,22.4478 C35.2855,22.5911 35.4496,22.8291 35.7039,22.7136 C35.935,22.9285 36.2309,22.843 36.4921,22.9447 C36.8504,23.0764 37.2595,22.9909 37.6479,23.0464 C38.1217,23.118 38.6326,23.0233 39.0556,23.3376 C39.2636,23.4925 39.4994,23.4855 39.7144,23.5896 C39.8115,23.6381 39.9455,23.5549 40.0426,23.6057 C40.2183,23.6982 40.3732,23.9155 40.5789,23.8369 C40.7846,23.7583 40.9233,24.0195 41.1105,24.068 C41.5289,24.1512 41.9149,24.4008 42.3611,24.3546 C42.4116,24.3497 42.4625,24.3571 42.5095,24.376 C42.5566,24.3949 42.5984,24.4248 42.6315,24.4632 C42.8028,24.6364 43.0139,24.765 43.2464,24.8377 C43.3836,24.9059 43.5313,24.9504 43.6833,24.9694 C43.9526,24.9541 44.2184,25.0361 44.4322,25.2006 C44.6472,25.404 44.9107,25.4317 45.1257,25.6467 C45.3869,25.9217 45.6712,26.139 45.9462,26.3817 L46.1265,26.5319 C46.143,26.4121 46.1661,26.2932 46.1959,26.176 C46.2236,26.0927 46.2768,25.9795 46.3184,25.9633 C46.3484,25.9586 46.3791,25.9659 46.4037,25.9837 C46.4284,26.0014 46.4451,26.0281 46.4502,26.0581 C46.4802,26.2545 46.4848,26.4741 46.501,26.6868 C46.7182,27.0136 46.9609,27.3227 47.2268,27.6113 C47.3886,27.4564 47.5412,27.186 47.7423,27.2808 L47.8787,27.7292 L47.6938,27.8817 C47.7166,28.0723 47.7973,28.2514 47.9249,28.3948 C48.1664,28.6989 48.3455,29.0477 48.4519,29.4211 C48.6299,29.918 48.7964,30.4358 49.0044,30.8865 C49.0962,31.1118 49.1433,31.3528 49.1431,31.5961 C49.1564,31.8974 49.1503,32.1993 49.1246,32.4998 C49.0116,33.127 48.8524,33.7451 48.6484,34.3489 L48.7779,34.2264 L49.0437,33.9744 C49.2332,33.7965 49.4205,33.6162 49.5961,33.4428 C49.8412,33.2117 50.0585,32.9806 50.2272,32.7957 L50.4075,32.5969 C50.5878,32.405 50.7704,32.2155 50.953,32.0283 C51.0201,31.9566 51.0894,31.8873 51.1564,31.818 L51.3483,31.6215 C51.7551,30.6785 52.7491,28.27 52.9294,27.1906 C53.1151,26.2226 53.101,25.2268 52.8878,24.2645 C52.823,24.0541 52.726,23.8022 52.6127,23.7444 Z M118.413,33.2487 L118.399,33.1978 L118.371,33.1031 L118.329,32.9482 L118.274,32.7471 C118.26,32.6893 118.244,32.6339 118.23,32.5761 C118.216,32.5183 118.195,32.4397 118.177,32.3727 C118.158,32.3057 118.138,32.2155 118.119,32.1415 L118.064,31.9104 C118.045,31.8341 118.029,31.7555 118.01,31.6793 C117.992,31.603 117.973,31.5152 117.957,31.432 C117.941,31.3488 117.927,31.2979 117.913,31.2286 C117.899,31.1592 117.886,31.0991 117.874,31.0344 C117.862,30.9697 117.842,30.8772 117.828,30.8033 L117.793,30.6161 C117.779,30.5421 117.765,30.4658 117.754,30.3849 C117.742,30.304 117.726,30.2301 117.715,30.1538 C117.703,30.0775 117.694,30.0243 117.684,29.9596 L117.657,29.7817 L117.629,29.5852 L117.608,29.4257 C117.608,29.3587 117.592,29.2893 117.583,29.22 C117.573,29.1507 117.562,29.0282 117.553,28.9311 C117.543,28.834 117.537,28.7785 117.53,28.6999 L117.509,28.4688 C117.509,28.4133 117.509,28.3579 117.509,28.3001 L117.509,28.203 C117.509,28.1845 117.509,28.1683 117.509,28.1522 C117.509,28.136 117.509,28.1175 117.509,28.1013 C117.509,28.0851 117.509,28.1013 117.509,28.1175 C117.463,28.3486 117.046,28.975 117.097,29.079 C117,29.4442 116.905,29.8117 116.811,30.1769 C116.725,30.5051 116.635,30.831 116.556,31.1615 C116.478,31.4921 116.422,31.774 116.355,32.0861 L116.383,32.0861 C116.379,32.0932 116.373,32.0995 116.367,32.1046 C116.196,32.7633 115.988,33.4128 115.863,34.0785 C115.782,34.5199 115.706,34.7464 115.632,35.174 C115.515,35.6896 115.347,36.1921 115.13,36.6741 L115.146,36.6741 L115.176,36.6741 L115.211,36.6741 L115.243,36.6741 L115.267,36.6741 L115.315,36.6741 L115.378,36.6741 L115.44,36.6741 L115.509,36.6741 L115.844,36.6741 L115.951,36.6741 L116.089,36.6556 L116.191,36.6371 L116.27,36.6186 L116.332,36.6024 L116.358,36.6024 L116.378,36.6024 C116.667,36.3551 116.926,36.0755 117.197,35.805 C117.241,35.7691 117.277,35.7236 117.302,35.6721 C117.327,35.6205 117.34,35.5641 117.34,35.5069 C117.34,35.4075 117.439,35.2988 117.506,35.2064 C117.634,35.0377 118.325,33.1262 118.406,33.2579 L118.413,33.2487 Z M116.693,34.543 C116.694,34.5261 116.694,34.5091 116.693,34.4922 L116.945,34.4922 C116.945,34.5153 116.945,34.5384 116.945,34.5615 L116.693,34.543 Z" id="Shape" opacity="0.7"></path>
            <path d="M72.8386,37.9847 L72.8039,37.9847 L72.7392,38.0078 L72.6791,38.0263 L72.6236,38.0425 L72.5589,38.061 L72.4525,38.0887 L72.3716,38.1095 L72.293,38.128 L72.2121,38.1442 L72.1312,38.158 L72.0434,38.1742 L71.9764,38.1742 L71.877,38.1881 L71.8053,38.1881 L71.7198,38.1881 L71.6158,38.1881 L71.5325,38.1881 L71.269,38.1881 C71.0975,38.1951 70.928,38.1491 70.7836,38.0563 C70.3768,37.7143 70.1017,36.8498 70.0416,36.2905 C70.0069,35.9715 69.7966,34.5131 69.7943,34.4899 C69.7505,34.1255 69.7258,33.7591 69.7203,33.392 C69.8382,32.2965 69.792,31.5591 69.9515,30.4543 C69.9954,30.1515 70.0254,29.0467 70.0347,28.7416 C69.9707,28.7336 69.9058,28.7466 69.8498,28.7786 C69.3875,29.049 68.9043,29.3079 68.4628,29.6153 C67.9664,29.9525 67.4895,30.3175 67.0343,30.7086 C66.4194,31.2425 65.7653,31.7348 65.2313,32.3704 C65.058,32.5761 64.88,32.7749 64.6951,32.9714 C62.9868,34.5593 61.7779,35.6133 60.1853,36.0663 C59.4017,36.2974 60.1853,36.376 59.3785,36.3436 C58.944,36.3252 58.5949,36.5193 58.3014,36.2743 C58.0645,36.0867 57.8772,35.8438 57.7559,35.567 C57.5123,35.0147 57.3466,34.4313 57.2635,33.8335 C57.1678,32.7988 57.2866,31.7554 57.6125,30.7687 C57.9752,29.6075 58.4481,28.4837 59.0249,27.4126 C59.6778,26.316 60.4046,25.265 61.2,24.2668 C61.3873,24.0242 61.5953,23.8046 61.8033,23.5734 L62.0923,23.169 L62.12,23.1297 L62.1755,23.0511 C62.231,22.9748 62.2841,22.8985 62.3396,22.8199 L62.513,22.5888 L62.7788,22.2236 L62.9891,21.9416 L63.1209,21.766 L63.3521,21.4562 L63.4838,21.2875 L63.6341,21.0934 C63.6895,21.0194 63.7473,20.9478 63.8051,20.8622 L63.9831,20.6311 C64.0409,20.5618 64.0964,20.4901 64.1518,20.4208 L64.309,20.2335 C64.3506,20.1804 64.3946,20.1295 64.4385,20.0787 L64.6396,19.8475 C64.6951,19.7805 64.7528,19.7158 64.8106,19.6511 L64.984,19.4546 L65.1296,19.2905 L65.229,19.1819 C65.2868,19.1172 65.3446,19.0548 65.4047,18.9923 L65.5226,18.8675 L65.6358,18.7497 C65.3002,18.7436 64.9715,18.8448 64.6974,19.0386 C63.4884,19.3159 62.4806,20.0093 61.526,20.7374 C60.1959,21.7213 58.9261,22.7841 57.7235,23.9201 C56.2441,25.3555 55.0005,26.9457 54.2377,28.8526 C54.1429,29.0837 54.0066,29.3148 53.9049,29.546 C53.498,30.422 53.0126,31.2725 52.7884,32.2133 C52.7029,32.5669 52.6705,32.9298 52.5942,33.2857 C52.474,33.8381 52.3376,34.3906 52.2013,34.9407 C52.153,35.0881 52.1491,35.2465 52.1902,35.3961 C52.2313,35.5457 52.3156,35.6799 52.4324,35.782 C52.5813,35.9046 52.6767,36.0803 52.6982,36.272 C52.8143,37.1824 53.2701,38.0154 53.9742,38.6041 C54.0574,38.6781 54.1869,38.7197 54.2377,38.8075 C54.4689,39.2166 54.8549,39.2166 55.2779,39.1265 C55.3172,38.8954 55.3542,38.6642 55.3935,38.4169 C55.7584,38.4114 56.1233,38.4245 56.4868,38.4562 C56.9191,38.514 57.3259,38.581 57.7281,38.2829 C57.8252,38.2089 58.0055,38.2389 58.1465,38.2297 C59.1613,38.1627 60.0997,37.4415 61.0544,37.1411 C61.2404,37.0635 61.4179,36.9666 61.5837,36.8521 C62.1293,36.5401 62.6124,35.8074 63.181,35.53 C63.515,35.3612 63.8258,35.1499 64.1056,34.9014 L64.5679,34.4922 C64.8384,34.3485 65.1316,34.2524 65.4347,34.208 L65.5503,34.1271 L65.5642,34.1155 C65.7082,34.8018 65.8078,35.4966 65.8624,36.1957 L65.9664,36.131 C66.0242,36.4985 66.0889,36.8729 66.1305,37.1226 C66.1539,37.3339 66.2573,37.5282 66.4194,37.6657 C66.7348,37.9453 66.9647,38.3083 67.0829,38.7128 C67.1647,38.9202 67.3079,39.0978 67.4934,39.2217 C67.6789,39.3456 67.8977,39.41 68.1207,39.4062 C68.7056,39.5842 69.2904,39.5749 70.1063,39.4224 C70.4346,39.36 72.0341,38.9878 72.8617,37.9177 L72.8386,37.9847 Z M82.8128,37.0971 L82.7943,37.0971 L82.7596,37.1133 L82.7319,37.1249 L82.6926,37.1387 L82.6648,37.1387 L82.6371,37.1387 L82.5978,37.1526 L82.5585,37.1665 L82.5146,37.1803 L82.4799,37.1803 L82.399,37.1988 L82.3667,37.1988 L82.3066,37.2104 L82.2465,37.2104 L82.1771,37.2104 L82.0662,37.2104 L82.0246,37.2104 L81.9876,37.2104 L81.946,37.2104 L81.9067,37.2104 L81.8581,37.1965 L81.8327,37.1965 L81.805,37.1965 L81.7772,37.1965 L81.7657,37.1965 L81.7518,37.1965 C81.5549,37.1096 81.37,36.9977 81.2017,36.8637 C81.1716,36.7967 80.3163,36.5008 80.277,34.3975 C80.21,34.1224 80.1592,33.8428 80.0944,33.5677 C79.9003,32.7433 79.7022,31.9197 79.5004,31.0969 C79.4108,30.8913 79.3501,30.6743 79.3201,30.452 C79.3779,29.2432 79.1236,28.0713 79.0334,26.8787 C78.9645,26.3096 78.929,25.7369 78.9271,25.1637 C78.9271,24.5673 78.9156,23.9687 78.9086,23.3331 C78.7829,23.3193 78.6559,23.3248 78.5318,23.3492 C78.192,23.4741 77.8592,23.6243 77.5217,23.7653 C76.7196,24.1051 77.175,24.0103 76.433,24.4587 C76.2018,24.5927 74.6138,25.649 74.5422,25.9772 C74.5422,25.9772 74.5422,25.9934 74.5422,26.005 C74.5422,26.0165 74.5422,26.0304 74.5422,26.0466 C74.5409,26.0705 74.5409,26.0944 74.5422,26.1182 C74.5422,26.1529 74.5422,26.1945 74.5422,26.2407 C74.5422,26.3887 74.5422,26.5874 74.5676,26.8209 C74.5676,26.9526 74.5861,27.0959 74.5999,27.2508 C74.6138,27.4542 74.6346,27.6738 74.6554,27.9072 C74.6762,28.1407 74.6993,28.3695 74.7225,28.6006 C74.7456,28.8318 74.7779,29.153 74.8103,29.4373 C74.8311,29.6546 74.8565,29.8742 74.8796,30.0938 C74.8981,30.2717 74.9189,30.4497 74.9374,30.6277 L74.986,31.0622 C75.0114,31.2749 75.0345,31.4875 75.0576,31.6932 C75.0738,31.825 75.0877,31.9544 75.1039,32.0838 C75.127,32.2918 75.1501,32.4952 75.1732,32.6894 C75.2009,32.9252 75.2264,33.147 75.2495,33.3551 C75.2749,33.5608 75.2957,33.7503 75.3142,33.919 C75.3142,33.9861 75.3304,34.0508 75.3373,34.1132 C75.3443,34.1756 75.3512,34.2449 75.3581,34.305 L75.3581,34.3605 L75.3581,34.3952 C75.3812,34.6009 75.3928,34.7326 75.3951,34.7673 C75.4183,35.2085 75.5442,35.6383 75.7626,36.0224 C76.0516,36.5863 76.426,37.1133 76.5278,37.7697 C76.5525,37.9749 76.5951,38.1775 76.6549,38.3753 C76.6616,38.4143 76.6773,38.4511 76.7008,38.483 C76.7242,38.5148 76.7548,38.5407 76.79,38.5587 C76.8253,38.5766 76.8642,38.5861 76.9037,38.5864 C76.9433,38.5866 76.9823,38.5777 77.0178,38.5602 C77.0363,38.5602 77.0733,38.5972 77.0941,38.6134 L76.9369,38.8699 C77.2443,39.3183 77.6119,39.4894 78.1458,39.2929 C78.3736,39.2384 78.6056,39.2029 78.8393,39.1866 C78.9895,39.1566 79.1375,39.0918 79.2854,39.0502 C80.314,38.7659 82.0107,38.1673 82.8313,37.0763 L82.8128,37.0971 Z M94.7796,36.7643 C94.0861,36.5979 93.4712,36.7135 92.7801,36.4338 C92.3871,36.2743 91.8786,36.0432 91.6243,35.7265 C91.1736,35.1857 90.806,34.6564 90.6812,34.0762 C90.4616,33.043 90.1126,32.2895 89.9623,31.2633 C89.8421,30.4358 89.7959,29.9643 89.6641,29.1369 C89.5971,28.7185 89.5555,28.6076 89.4792,28.039 C89.403,27.4704 89.3313,27.1144 89.181,26.1229 C89.181,26.0512 89.0747,25.4503 89.0631,25.3786 C88.9501,24.8564 88.8767,24.3263 88.8436,23.793 C88.8436,23.1736 88.8759,22.2352 88.802,21.6504 C88.3397,21.4354 87.7433,21.9324 87.3827,22.1497 C86.7826,22.5119 86.1603,22.8361 85.5196,23.1204 C85.3878,23.1828 84.7891,23.4625 84.6713,23.5457 C84.6713,23.5457 84.6713,23.5758 84.6713,23.6035 C84.6713,23.6312 84.6713,23.6451 84.6713,23.6705 C84.6713,23.7375 84.6944,23.8254 84.7106,23.9294 C84.7106,23.9825 84.7267,24.0403 84.736,24.1004 C84.7452,24.1605 84.7475,24.179 84.7522,24.2206 C84.7568,24.2622 84.7753,24.3755 84.7868,24.4518 C84.7984,24.528 84.8007,24.5511 84.8053,24.5997 C84.81,24.6482 84.8238,24.7384 84.8307,24.8077 C84.8469,24.9302 84.8585,25.0527 84.8677,25.1706 C84.877,25.2885 84.8862,25.4341 84.8862,25.5543 C84.8907,25.6312 84.8907,25.7084 84.8862,25.7854 C84.8828,25.8455 84.8735,25.9051 84.8585,25.9634 C84.8498,26.0603 84.8498,26.1577 84.8585,26.2546 C84.8585,26.3332 84.8585,26.428 84.87,26.532 C84.87,26.5805 84.87,26.6314 84.87,26.6868 C84.87,26.8093 84.8885,26.9434 84.8978,27.0913 C84.8978,27.1861 84.914,27.2855 84.9209,27.3895 L84.9348,27.5651 L84.9486,27.7177 C84.9486,27.8286 84.9671,27.9488 84.9764,28.0621 C84.9856,28.1753 84.9926,28.2354 84.9995,28.3233 L85.0203,28.5382 C85.0203,28.5752 85.0203,28.6099 85.0203,28.6445 L85.0342,28.7948 L85.048,28.9496 C85.048,28.9912 85.048,29.0328 85.0596,29.0745 C85.0712,29.1161 85.0596,29.1577 85.0712,29.1993 L85.085,29.3449 C85.085,29.4119 85.0966,29.4789 85.1035,29.546 C85.1105,29.613 85.1035,29.6315 85.1151,29.6754 C85.1151,29.754 85.1312,29.8326 85.1382,29.9065 C85.1451,29.9805 85.1497,30.0313 85.1567,30.0938 L85.1705,30.2278 C85.1705,30.2948 85.1844,30.3619 85.189,30.4289 L85.2098,30.6369 L85.2237,30.7664 C85.2237,30.8265 85.2353,30.8889 85.2422,30.949 C85.2491,31.009 85.2561,31.0946 85.2653,31.1662 C85.2746,31.2379 85.2769,31.2841 85.2815,31.3419 L85.3069,31.573 L85.3208,31.714 L85.3416,31.9128 C85.3416,31.9914 85.3578,32.0676 85.367,32.1439 C85.3763,32.2202 85.3786,32.2549 85.3855,32.308 L85.4133,32.5761 C85.4225,32.664 85.4317,32.7495 85.441,32.8327 C85.441,32.902 85.4572,32.9691 85.4641,33.0338 L85.4849,33.2118 L85.4849,33.2742 L85.4849,33.3135 C85.5681,34.03 85.6305,34.5061 85.6513,34.5339 C85.7678,34.697 85.8721,34.8685 85.9634,35.047 C86.1784,35.4191 86.398,35.7843 86.8372,35.9207 C86.9256,35.9597 86.9975,36.0283 87.0406,36.1148 C87.3064,36.5956 87.5653,37.081 87.8219,37.5663 C88.1086,38.0853 88.5074,38.5337 88.9892,38.8792 C89.0681,38.9366 89.1621,38.9696 89.2596,38.974 C89.4515,38.9529 89.6447,38.9468 89.8375,38.9555 C90.0155,38.9901 90.1681,39.1866 90.3368,39.1866 C90.8453,39.1704 91.3377,39.2883 91.8624,39.1866 C92.4021,39.0937 92.9037,38.8473 93.3071,38.477 C93.7175,38.116 94.1507,37.7817 94.6039,37.4762 C94.798,37.3213 95.0269,37.2173 95.2257,37.0671 C95.3168,36.9657 95.3945,36.8531 95.4568,36.7319 C95.2812,36.6765 94.9021,36.7967 94.7796,36.7643 Z M88.8436,37.9061 C88.8089,37.9061 88.7742,37.8183 88.7395,37.7697 C88.8003,37.737 88.8647,37.7114 88.9314,37.6935 C88.9522,37.6935 88.9823,37.7489 89.0215,37.7952 C88.9568,37.8345 88.9014,37.9061 88.8436,37.9061 Z M51.0409,32.1277 C50.8583,32.315 50.6757,32.5045 50.4953,32.6963 L50.3151,32.8951 C50.1486,33.0777 49.929,33.3042 49.684,33.5423 C49.5083,33.7156 49.3211,33.8959 49.1316,34.0739 L48.8657,34.3258 L48.7363,34.4483 C48.1307,35.0169 47.6036,35.5023 47.5597,35.5763 C47.5389,35.6094 47.5113,35.6377 47.4788,35.6595 C47.1876,35.916 46.8986,36.1865 46.6027,36.4199 C46.1404,36.7874 45.6781,37.1526 45.2158,37.4693 C45.0494,37.5825 44.9015,37.7859 44.7212,37.8553 C44.4528,37.9849 44.1974,38.1397 43.9584,38.3175 C43.4175,38.6689 42.8766,39.0248 42.3403,39.3646 C42.1884,39.4391 42.0609,39.5553 41.9728,39.6997 C41.9277,39.7906 41.8647,39.8714 41.7877,39.9373 C41.7106,40.0032 41.621,40.0529 41.5243,40.0834 C41.3783,40.1207 41.2469,40.2012 41.1475,40.3145 C41.054,40.4413 40.9277,40.5404 40.7823,40.6011 C40.357,40.8022 39.9317,41.0634 39.504,41.2807 C39.381,41.3314 39.2521,41.3663 39.1203,41.3847 C39.051,41.4032 38.9724,41.3662 38.9123,41.4263 C38.6811,41.6574 38.45,41.6574 38.2188,41.7406 C38.0725,41.803 37.9331,41.8805 37.8028,41.9718 C37.4676,42.2029 37.1093,42.434 36.7834,42.4525 C36.4575,42.471 36.1362,42.7646 35.8125,42.8385 C35.4889,42.9125 35.1769,43.1737 34.8671,43.2361 C34.3798,43.3342 33.9058,43.4893 33.4548,43.6983 C33.2236,43.8047 32.9925,43.6706 32.7775,43.9942 C32.7775,43.9942 32.7498,43.9942 32.7428,43.9711 C32.6342,43.74 32.4724,43.941 32.3476,44.0381 C32.2227,44.1352 32.0979,44.223 31.9731,44.1837 C31.9336,44.1688 31.8901,44.1688 31.8506,44.1837 C31.5362,44.2901 31.2219,44.4149 30.9098,44.5189 C30.6532,44.6113 30.3851,44.7916 30.1447,44.7777 C29.7795,44.7569 29.3981,45.0597 29.0398,44.9927 C28.9288,44.9696 28.8086,45.099 28.7647,45.3602 C28.7167,45.5309 28.658,45.6984 28.589,45.8618 L28.1729,45.5497 L28.0551,46.1992 C28.3024,46.1461 28.5174,46.0929 28.7485,46.049 C28.8849,46.0236 28.9982,45.8988 29.1091,45.6607 C29.1228,45.7166 29.1487,45.7688 29.1851,45.8135 C29.2214,45.8582 29.2673,45.8943 29.3193,45.919 C29.3713,45.9438 29.4281,45.9567 29.4857,45.9568 C29.5433,45.9569 29.6002,45.9442 29.6523,45.9196 C29.8608,45.8831 30.0621,45.8137 30.2487,45.7138 C30.2903,45.6861 30.3389,45.737 30.4013,45.7578 C30.0568,46.5783 29.5945,46.9204 29.1553,47.3826 C28.9034,47.1862 28.6168,47.3041 28.3278,47.4612 C27.9626,47.6577 27.5951,47.942 27.2414,47.7501 C27.1397,47.6947 26.9894,47.8079 26.8623,47.8449 C26.6966,47.9066 26.5256,47.953 26.3515,47.9836 C26.0939,47.9959 25.839,48.0417 25.5933,48.12 C25.1079,48.2841 24.6201,48.5476 24.137,48.6285 C23.9486,48.6773 23.7634,48.7375 23.5823,48.8087 C23.4852,48.8365 23.3765,48.885 23.2956,48.8434 C23.1292,48.7579 22.9766,48.8434 22.801,48.9867 C22.549,49.2179 22.3086,49.2918 22.0636,49.1416 C21.7492,48.9497 21.3979,49.0006 21.0257,49.2063 C20.8385,49.277 20.6383,49.307 20.4386,49.2941 C20.3531,49.2941 20.2698,49.2479 20.1889,49.2941 C20.0449,49.3576 19.8882,49.3869 19.731,49.3797 C19.5738,49.3724 19.4204,49.3289 19.2828,49.2525 C19.17,49.1901 19.0389,49.1692 18.9123,49.1932 C18.7857,49.2173 18.6714,49.2849 18.5894,49.3843 C18.4368,49.3288 18.3374,49.2548 18.2311,49.2618 C18.0795,49.2779 17.9334,49.3276 17.8034,49.4074 C17.6538,49.4958 17.4854,49.5477 17.3119,49.559 C17.1384,49.5702 16.9647,49.5405 16.8049,49.4721 C16.7352,49.4423 16.6582,49.4342 16.5839,49.4491 C16.5096,49.4639 16.4416,49.501 16.3888,49.5553 C16.3125,49.6246 16.2016,49.6709 16.1438,49.6223 C16.0074,49.4998 15.8502,49.5622 15.6953,49.5715 C15.4729,49.5983 15.249,49.6114 15.025,49.6108 C14.4564,49.5807 13.8923,49.5253 13.3237,49.4906 C12.9677,49.4675 12.6303,49.2595 12.2581,49.3912 C12.0917,49.2179 11.8859,49.3126 11.6895,49.3265 C11.5657,49.3234 11.4429,49.304 11.3242,49.2687 C10.9729,49.2063 10.6747,48.892 10.2864,49.0052 C10.2355,49.0214 10.1893,48.9451 10.1361,48.9289 C9.88647004,48.848 9.64376004,48.6862 9.38487004,48.7209 C8.98498004,48.7741 8.69141004,48.4412 8.33082004,48.358 C8.16207004,48.1061 7.92168004,48.0853 7.71133004,47.9697 C7.57495004,47.8934 7.41776004,47.8842 7.28138004,47.8056 C6.97395004,47.6276 6.67808004,47.3942 6.35677004,47.2416 C6.16847004,47.1699 5.99288004,47.0685 5.83668004,46.9412 C5.45297004,46.5829 5.06694004,46.2339 4.68092004,45.8872 C4.56765004,45.7855 4.44976004,45.6329 4.32494004,45.6376 C4.13540004,45.6376 4.02907004,45.4688 3.91349004,45.3001 C3.71239004,45.002 3.56214004,44.5905 3.26858004,44.4958 C3.23390004,44.4842 3.20616004,44.4241 3.17843004,44.3802 C3.02818004,44.1491 2.87330004,43.9179 2.72999004,43.6614 C2.57696004,43.4279 2.44838004,43.1793 2.34628004,42.9194 C2.09663004,42.2075 1.87010004,41.4679 1.65282004,40.726 C1.59999004,40.5071 1.55833004,40.2857 1.52800004,40.0626 C1.44016004,39.6003 1.43785004,39.0572 1.36619004,38.5833 C1.27718004,37.927 1.25472004,37.2634 1.29916004,36.6025 C1.32689004,36.0432 1.37775004,35.4769 1.43785004,34.9129 C1.46790004,34.6078 1.53031004,34.2981 1.58810004,33.9884 C1.63202004,33.7572 1.68749004,33.5261 1.74066004,33.295 C1.83312004,32.9159 1.90015004,32.5184 2.02497004,32.167 C2.30274004,31.3068 2.69705004,30.4887 3.19692004,29.7355 C3.36496004,29.4731 3.49712004,29.1893 3.58988004,28.8919 C3.67540004,28.6607 3.74013004,28.4018 3.80716004,28.1545 C3.82812004,28.0391 3.84278004,27.9226 3.85108004,27.8055 C3.36616004,28.268 2.98758004,28.8303 2.74155004,29.4535 C2.68376004,29.5899 2.64215004,29.7517 2.57743004,29.8696 C2.14517004,30.6508 1.85161004,31.5938 1.47252004,32.4398 C1.18820004,33.0731 0.991723038,33.8127 0.749012038,34.5015 C0.604545038,34.9433 0.486450038,35.3932 0.395349038,35.849 C0.290636038,36.2516 0.213407038,36.6609 0.164196038,37.074 C0.0948507385,37.9177 0.0578663385,38.759 0.0185703385,39.598 C-0.0348791615,40.641 0.0271381385,41.6867 0.203492038,42.716 C0.382260038,43.8371 0.707902038,44.9297 1.17202004,45.9658 C1.55573004,46.7817 2.12437004,47.2208 2.55894004,47.9189 C2.55894004,47.9351 2.58205004,47.9374 2.59361004,47.9489 C2.94496004,48.3141 3.28707004,48.6816 3.64998004,49.0468 C3.67953004,49.0804 3.71474004,49.1086 3.75400004,49.13 L4.17238004,49.3172 C4.10586004,49.1684 4.02699004,49.0253 3.93661004,48.8896 C3.80170004,48.7382 3.65896004,48.5939 3.50897004,48.4574 C3.29400004,48.2563 3.10908004,47.9951 2.89180004,47.7871 C2.67451004,47.5791 2.56125004,47.2208 2.32547004,47.0521 C2.14055004,46.9181 2.01342004,46.6014 1.84468004,46.4072 C1.73846004,46.2609 1.67449004,46.0882 1.65975004,45.908 C1.64755004,45.8592 1.65052004,45.8078 1.66828004,45.7607 C1.68604004,45.7136 1.71774004,45.6731 1.75915004,45.6445 L2.02729004,46.086 C2.36939004,46.6499 2.70687004,47.2416 3.14606004,47.5907 C3.48586004,47.8657 3.83952004,48.12 4.18163004,48.3696 C4.41327004,48.497 4.63366004,48.644 4.84041004,48.8087 C5.37206004,49.3334 5.99618004,49.5253 6.58330004,49.8489 C6.90385004,49.9845 7.23276004,50.0996 7.56801004,50.1932 C8.24412004,50.4838 8.95037004,50.6985 9.67381004,50.8335 C10.3557,50.9421 11.0145,51.201 11.738,51.0531 C11.8212,51.0369 11.8975,51.0924 11.9692,51.1062 C12.2084,51.1771 12.4571,51.2106 12.7065,51.2056 C13.362,51.1351 14.022,51.115 14.6806,51.1455 C14.9857,51.1455 15.2723,51.2726 15.6052,51.1455 C15.6329,51.1455 15.6584,51.1594 15.6861,51.1571 L17.4244,50.9814 C17.4543,50.9833 17.4841,50.9761 17.5099,50.9606 C17.6463,50.852 17.7572,50.9282 17.8797,50.9398 C18.2418,50.9994 18.6118,50.9908 18.9708,50.9144 C19.2321,50.8096 19.5054,50.7374 19.7844,50.6994 C20.1838,50.6816 20.5807,50.6274 20.9702,50.5376 C21.1888,50.4974 21.4026,50.4347 21.6082,50.3504 C21.9665,50.1979 22.3225,49.9968 22.6553,50.1655 C22.6968,50.1782 22.741,50.1782 22.7825,50.1655 C23.291,50.0777 23.8042,49.9089 24.3035,49.9344 C24.3566,49.9344 24.419,49.8928 24.4745,49.8789 C24.6317,49.8396 24.7866,49.8026 24.9368,49.7749 C25.0223,49.7587 25.1032,49.7749 25.1888,49.7518 C25.5586,49.6663 25.9308,49.4074 26.3029,49.3427 C26.3552,49.3267 26.4032,49.2991 26.4433,49.2618 C26.4833,49.2246 26.5144,49.1787 26.5341,49.1277 C26.549,49.0495 26.5839,48.9766 26.6353,48.9158 C26.6868,48.8551 26.753,48.8086 26.8276,48.781 C27.0588,48.6955 27.2553,48.6285 27.4194,48.8712 C27.5142,49.0098 27.6505,48.9544 27.7846,48.8712 C27.8401,48.8365 27.8909,48.7001 27.9441,48.6077 C28.0712,48.6654 28.1383,48.892 28.307,48.818 C28.4087,48.7789 28.5,48.7168 28.5738,48.6367 C28.6476,48.5565 28.7018,48.4603 28.7323,48.3557 C28.7439,48.3234 28.7832,48.3187 28.8109,48.3002 L29.0421,48.5776 C29.3957,48.4898 29.6962,48.432 29.9944,48.3465 C30.4799,48.1962 30.9699,47.9882 31.453,47.8842 C31.7535,47.8149 32.0494,47.5491 32.3476,47.5306 C32.493,47.5018 32.636,47.4616 32.7752,47.4104 C32.8838,47.385 32.9925,47.3734 33.1081,47.3549 C33.0873,47.5329 33.0757,47.6554 33.0618,47.7894 C33.1025,47.794 33.1436,47.794 33.1843,47.7894 C33.5681,47.7132 33.9495,47.3919 34.3401,47.274 C35.0292,47.036 35.7044,46.7598 36.3627,46.4465 C36.8088,46.2547 37.2526,46.0421 37.6987,45.8225 C38.0848,45.6306 38.4708,45.3764 38.8545,45.2192 C39.2382,45.062 39.6173,44.6807 40.0103,44.6483 C40.0764,44.6402 40.1372,44.6081 40.1813,44.5582 C40.4749,44.2369 40.7823,44.327 41.0782,44.0705 C41.4157,44.1098 41.73,43.7192 42.0537,43.5019 C42.1403,43.3841 42.2103,43.255 42.2617,43.1182 C42.3542,43.1182 42.4767,43.1945 42.5691,43.1066 C42.7141,42.9877 42.8688,42.881 43.0314,42.7877 C44.4232,41.7525 45.6968,40.5673 46.8293,39.2536 C47.3451,38.6662 47.8164,38.0412 48.2393,37.3837 C48.868,36.4176 49.5268,35.5139 50.0585,34.3513 C50.248,33.9329 50.4561,33.533 50.6687,33.147 C50.9299,32.6848 51.1796,32.2017 51.4246,31.7117 L51.2327,31.9082 C51.1773,31.9937 51.1079,32.063 51.0409,32.1277 Z M17.2117,22.5588 C17.257,22.592 17.3106,22.612 17.3666,22.6165 C17.6106,22.6764 17.863,22.6952 18.1132,22.672 C18.7882,22.5287 19.4423,22.5634 20.1057,22.5079 C20.1774,22.5079 20.2467,22.5079 20.3161,22.4871 L20.4363,22.4732 C20.5102,22.4732 20.5842,22.4732 20.6674,22.4594 C20.7127,22.4551 20.7571,22.4442 20.7992,22.427 C20.7992,22.427 20.7992,22.4039 20.7992,22.3993 L20.8315,22.3808 L21.1806,22.2028 L21.6868,21.9717 C21.8925,21.8746 22.1168,21.7706 22.3572,21.662 L23.2956,21.2367 L23.9637,20.9385 L24.701,20.608 L25.4662,20.2659 L26.4832,19.8036 C26.7629,19.6742 27.0195,19.554 27.2391,19.4477 C27.3963,19.3714 27.535,19.3044 27.6505,19.2443 L28.0458,19.0409 C28.4804,18.8098 28.9149,18.6064 29.3495,18.4006 L29.9043,18.1418 C30.4082,17.9122 30.9214,17.6872 31.4438,17.4669 L31.7003,17.3605 L32.0771,17.2011 L32.5949,16.9699 L33.2884,16.6579 L33.9194,16.3782 L34.3632,16.1817 L34.6891,16.0384 C35.4265,15.7172 35.9952,15.4837 36.016,15.5346 C36.224,15.4907 36.4343,15.4259 36.6447,15.3797 C36.9376,15.3429 37.2226,15.2586 37.4884,15.1301 C38.0039,14.8389 38.5124,14.8435 39.0302,14.6077 C39.8045,14.2564 40.5812,13.9351 41.3556,13.6832 C41.9566,13.4775 44.1918,12.3634 44.7882,12.3518 C44.8498,12.3435 44.9084,12.3205 44.9592,12.2848 C45.1395,12.1762 45.1904,12.4351 45.3291,12.5737 C45.4678,12.7124 45.5025,13.6971 45.6828,13.6323 C45.8616,13.1804 46.1819,12.7985 46.5958,12.5437 C46.7645,12.4582 47.0096,11.2262 47.1506,11.0367 C47.5343,10.5282 47.8302,8.7369 48.2462,8.30699 C48.29,8.25202 48.3229,8.18928 48.3433,8.12208 C48.6422,7.39404 48.8886,6.64557 49.0807,5.88238 C49.1431,5.61889 49.4344,5.22365 49.3581,5.05723 C49.2564,4.8261 49.6701,3.69122 49.4898,3.75132 C49.1117,3.99061 48.7481,4.25226 48.4011,4.53487 C48.17,4.7244 47.9388,4.99714 47.7493,4.88157 C47.5898,4.7868 47.1922,5.27681 47.0234,5.32997 C46.679,5.43398 46.33,5.5611 45.9902,5.67898 C45.8068,5.72287 45.6334,5.80131 45.4793,5.91012 C45.313,6.06608 45.1065,6.17255 44.883,6.21753 C44.7004,6.24989 42.8858,6.99645 42.7032,7.03574 C42.2686,7.12358 41.8294,7.23452 41.3949,7.30617 C41.0181,7.37089 40.6274,7.34778 40.2668,7.88863 C40.1744,7.84241 40.1004,7.74302 40.0357,7.77769 C39.7491,7.90943 39.4879,7.63901 39.192,7.9834 C39.1814,7.99431 39.1682,8.00237 39.1537,8.00681 C39.1391,8.01126 39.1237,8.01195 39.1088,8.00882 C38.7482,7.97877 38.3714,8.29312 38.0085,8.30236 C37.9252,8.31902 37.8506,8.36493 37.7981,8.4318 C37.6941,8.54274 37.5993,8.58204 37.5069,8.52888 C37.2572,8.38557 36.9914,8.52888 36.7163,8.64675 C36.4818,8.79222 36.2183,8.88453 35.9443,8.91718 C35.7778,8.95105 35.6203,9.01956 35.482,9.11827 C35.3248,9.19686 35.1676,9.28469 35.0197,9.38176 C34.7885,9.52969 34.5574,9.76313 34.3262,9.66144 C34.0327,9.92955 33.7599,9.82323 33.4871,9.82554 C33.293,9.82554 33.1127,9.69379 32.9139,10.0359 C32.8885,10.0821 32.8307,10.0821 32.7914,10.0867 C32.636,10.0928 32.4814,10.1113 32.3291,10.1422 C32.1521,10.1607 31.9878,10.2429 31.8668,10.3733 C31.6957,10.6045 31.5593,10.4196 31.4045,10.5721 C31.3552,10.6308 31.288,10.6716 31.2132,10.6883 C31.1385,10.7051 31.0603,10.6967 30.9907,10.6646 C30.8821,10.6276 30.7595,10.6646 30.6648,10.8518 C30.57,11.039 30.4498,11.0298 30.3389,11.0413 C29.9713,11.0783 29.6061,11.1083 29.2386,11.1546 C29.1426,11.1685 29.0531,11.2112 28.982,11.2771 C28.8618,11.3857 28.7508,11.5822 28.6283,11.6515 C28.5058,11.7208 28.3486,11.7 28.2053,11.7463 C28.1383,11.7671 28.0712,11.8688 28.0042,11.9127 C27.8062,12.0598 27.5931,12.1853 27.3685,12.2871 C27.1685,12.36 26.9818,12.4654 26.8161,12.5992 C26.719,12.6731 26.5849,12.7841 26.5248,12.7355 C26.1481,12.4512 25.6788,12.8858 25.2928,12.7101 C25.2466,12.6893 25.1772,12.7494 25.1217,12.7887 C24.9969,12.8788 24.8513,13.0822 24.7542,13.0545 C24.6109,13.0129 24.4722,13.0961 24.3335,13.1123 C24.1315,13.1509 23.9316,13.2003 23.7348,13.2602 C23.4706,13.3375 23.1997,13.3901 22.9258,13.4174 C22.7671,13.4154 22.6098,13.4461 22.4635,13.5075 C22.1755,13.6198 21.8752,13.6974 21.5689,13.7387 C21.3518,13.7635 21.1333,13.7751 20.9148,13.7733 C20.709,14.0045 20.5611,14.1663 20.4178,14.3327 C20.2329,14.5476 20.0294,15.8027 19.9069,16.1679 C19.82,16.3854 19.7116,16.5937 19.5833,16.7896 C19.5163,16.9121 19.4331,17.0208 19.3753,17.141 C18.906,18.1718 18.3235,19.0085 17.9213,20.1087 C17.8823,20.1857 17.8333,20.2571 17.7757,20.3214 C17.497,20.7719 17.2742,21.2547 17.1123,21.759 C16.9805,22.108 17.0314,22.4201 17.2117,22.5588 Z M37.8536,0 C35.6276,0.843642 27.988,3.53174 25.2258,4.45859 L25.0108,5.44322 C27.9002,4.50482 35.089,1.92304 37.2965,1.05166 L37.8536,0 Z M118.78,22.1728 C119.222,22.4944 119.705,22.7534 120.218,22.9424 C120.337,22.994 120.447,23.066 120.542,23.1551 C120.948,23.5087 121.041,23.4925 121.376,23.0557 C121.492,22.8778 121.545,22.6662 121.526,22.4548 C121.545,21.9278 121.67,21.796 122.136,21.7382 C122.661,21.6712 122.83,21.4308 122.791,20.786 C122.791,20.7189 122.791,20.6219 122.821,20.5895 C123.066,20.3584 122.934,20.1919 122.774,19.9978 C122.643,19.8111 122.524,19.6166 122.416,19.4153 C122.25,19.3252 122.032,19.2766 121.919,19.131 C121.704,18.8777 121.434,18.6755 121.131,18.5393 C121.038,18.5 120.955,18.4397 120.89,18.3631 C120.824,18.2865 120.777,18.1957 120.752,18.0979 C120.69,17.9045 120.569,17.735 120.407,17.6125 C119.945,17.2611 119.554,16.8127 119.021,16.5701 C118.915,16.5311 118.82,16.4687 118.743,16.3875 C118.677,16.278 118.625,16.1608 118.588,16.0384 C118.27,16.1876 117.995,16.4161 117.791,16.7018 C117.224,17.4114 116.882,18.2897 116.365,19.0386 C116.191,19.2882 116.073,19.5841 115.902,19.8291 C115.731,20.0741 115.731,20.4138 115.44,20.5987 C115.365,20.6738 115.314,20.7692 115.292,20.8731 C115.271,20.977 115.281,21.0849 115.32,21.1835 C115.946,21.3407 115.946,21.3407 116.332,20.9524 C116.596,20.9236 116.862,20.9883 117.083,21.135 C117.664,21.477 118.242,21.7868 118.78,22.1728 Z M84.5904,17.7535 L84.343,17.7188 L84.417,17.4877 C84.4854,17.2582 84.5189,17.0198 84.5164,16.7804 C84.5164,15.0191 83.7836,14.3928 83.1549,14.3928 C82.1008,14.3928 80.878,15.3959 80.878,16.6902 C80.878,17.6009 81.486,18.0979 82.9168,18.3475 L83.3999,18.433 L83.007,18.7219 C81.9714,19.5008 80.2886,20.1781 78.7584,20.7813 C79.2054,20.8722 79.6593,20.9255 80.1152,20.9408 C80.8087,20.6843 82.7804,19.9492 83.8137,18.6295 L83.9061,18.5116 L84.0495,18.5601 C84.156,18.5943 84.2602,18.6352 84.3615,18.6826 L84.9694,17.8413 C84.8471,17.7969 84.7198,17.7674 84.5904,17.7535 Z M84.0148,17.5015 L83.957,17.6795 L83.7721,17.6425 C81.7402,17.2357 81.3126,16.5585 81.3126,16.0592 C81.3126,15.56 81.9437,15.0977 82.5863,15.0977 C83.2797,15.0977 84.0564,15.9529 84.0818,17.104 C84.081,17.2392 84.0583,17.3735 84.0148,17.5015 Z M96.5571,45.2886 C99.0143,44.4911 105.131,42.2838 107.01,41.5465 L107.472,40.6589 C105.577,41.3778 99.079,43.6637 96.7282,44.4519 L96.5571,45.2886 Z M116.436,36.7227 L116.415,36.7227 L116.39,36.7227 L116.328,36.7389 L116.249,36.7574 L116.147,36.7759 L116.009,36.7944 L115.902,36.7944 L115.567,36.7944 L115.498,36.7944 L115.435,36.7944 L115.373,36.7944 L115.324,36.7944 L115.301,36.7944 L115.269,36.7944 L115.234,36.7944 L115.204,36.7944 L115.181,36.7944 C114.826,36.7397 114.498,36.5729 114.245,36.3182 C114.135,36.1339 114.057,35.9323 114.014,35.7219 C113.806,35.0655 113.568,34.4183 113.41,33.7434 C113.198,32.8188 113.05,31.8642 112.87,30.9212 C112.603,29.6688 112.4,28.4037 112.262,27.1306 C112.26,26.9608 112.229,26.7926 112.169,26.6337 C112.065,26.3902 112.003,26.1307 111.987,25.8663 C111.913,25.2885 111.797,24.7106 111.755,24.1328 C111.714,23.555 111.346,21.3268 111.293,20.883 C111.286,20.6426 111.245,20.4044 111.171,20.1758 C111.064,19.8661 111.006,19.5417 111,19.2142 C110.939,18.3382 110.919,17.4622 110.838,16.5862 C110.768,15.835 111.016,11.7093 111.002,10.9535 C110.998,10.7092 110.974,10.4657 110.93,10.2254 C110.893,10.0979 110.841,9.97528 110.775,9.86021 C110.251,9.90182 109.296,10.8009 108.859,11.0043 C108.355,11.2355 107.068,12.2132 106.548,12.3911 C106.138,12.5298 106.964,12.895 106.917,13.2995 C106.871,13.704 106.855,14.4436 106.843,15.2341 C106.867,15.6686 106.894,16.1425 106.929,16.6371 C106.635,18.1626 106.016,21.1581 105.852,22.1843 C105.826,22.3554 105.799,22.5264 105.771,22.6928 L105.771,22.709 L105.771,22.7229 L105.771,22.7506 C105.771,22.783 105.759,22.8153 105.752,22.8477 C105.741,22.924 105.727,22.9979 105.715,23.0788 C105.704,23.1597 105.695,23.1967 105.685,23.2522 C105.646,23.4833 105.604,23.6983 105.561,23.9248 C105.549,23.9964 105.535,24.0681 105.521,24.1397 C105.507,24.2114 105.505,24.2137 105.498,24.2507 C105.491,24.2876 105.475,24.3755 105.461,24.4379 C105.399,24.7545 105.334,25.0573 105.272,25.3462 L105.244,25.4687 C105.209,25.6305 105.172,25.79 105.135,25.9495 C105.082,26.1806 105.027,26.4118 104.971,26.629 L104.936,26.7677 C104.936,26.7978 104.92,26.8278 104.913,26.8556 L104.886,26.9642 L104.858,27.0705 C104.812,27.2462 104.765,27.4218 104.717,27.5952 L104.682,27.72 C104.671,27.7639 104.659,27.8078 104.645,27.8517 C104.631,27.8957 104.629,27.9142 104.62,27.9465 C104.548,28.1938 104.476,28.4411 104.4,28.6908 C104.389,28.7231 104.379,28.7578 104.368,28.7902 L104.333,28.8988 C104.275,29.0837 104.218,29.2663 104.157,29.4466 L104.134,29.5159 C104.06,29.7471 103.982,29.962 103.903,30.1816 C103.892,30.2163 103.88,30.2509 103.866,30.2856 L103.843,30.3503 C103.769,30.5522 103.692,30.7533 103.612,30.9536 C103.577,31.0437 103.545,31.1292 103.51,31.2148 L103.348,31.6123 L103.207,31.9382 L103.083,32.2225 C103.022,32.3543 102.965,32.4837 102.905,32.6108 L102.801,32.8281 L102.655,33.1216 L102.574,33.2834 L102.546,33.3366 L102.521,33.3851 C102.521,33.4059 102.5,33.4244 102.491,33.4429 L102.491,33.4545 C101.497,35.3498 100.545,36.4592 99.8973,37.081 L99.858,37.1179 L99.7956,37.1757 C98.8062,38.0425 98.092,36.8128 97.7152,36.3668 C97.4762,36.1332 97.2929,35.8488 97.1789,35.5347 C96.8464,34.6665 96.7022,33.7377 96.7559,32.8096 C96.8504,31.1796 97.1974,29.5741 97.7845,28.0505 C98.0827,27.2716 98.3925,26.4973 98.7415,25.7392 L98.8178,25.582 L98.8178,25.5704 L98.8293,25.5473 L98.8293,25.5288 C98.838,25.5147 98.8457,25.5 98.8525,25.4849 C98.8686,25.4549 98.8848,25.4271 98.8987,25.3971 L98.9565,25.2931 L99.0443,25.1405 L99.1275,25.0019 C99.1738,24.921 99.2223,24.8424 99.2709,24.7707 L99.3448,24.6505 C99.3911,24.5743 99.4373,24.5003 99.4812,24.4194 C99.502,24.3893 99.5205,24.357 99.539,24.3246 C99.5575,24.2923 99.5737,24.2668 99.6314,24.179 L99.7771,23.9687 C99.8141,23.9155 99.858,23.86 99.9042,23.7976 C99.9805,23.6959 100.068,23.5827 100.17,23.4648 C100.221,23.4024 100.276,23.3377 100.334,23.273 C100.392,23.2082 100.487,23.1042 100.565,23.0187 L100.692,22.887 L100.843,22.7414 L100.984,22.6119 L101.115,22.4964 C101.185,22.4363 101.256,22.3762 101.33,22.3184 C101.404,22.2606 101.467,22.2121 101.538,22.1612 L101.682,22.0595 C101.756,22.0087 101.832,21.9578 101.913,21.9093 C101.994,21.8607 102.04,21.8284 102.107,21.7914 C102.174,21.7544 102.241,21.7151 102.311,21.6804 L102.47,21.5996 C102.551,21.5603 102.632,21.5233 102.715,21.4886 L102.946,21.4008 L103.143,21.3337 L103.321,21.2829 L103.533,21.2297 L103.61,21.2159 L103.64,21.2159 C103.251,21.0351 102.834,20.9218 102.408,20.8807 C102.027,20.8713 101.65,20.9505 101.305,21.1119 C100.612,21.4378 99.1715,21.4794 98.5312,21.9254 C97.9464,22.3253 97.3361,22.6859 96.7259,23.0511 C96.0459,23.4629 95.4757,24.0331 95.0639,24.7129 C94.6963,25.3116 94.3704,25.9772 94.4467,26.7515 C94.4549,27.0303 94.4127,27.3083 94.3219,27.5721 C94.0769,28.4319 93.7948,29.2825 93.5521,30.1423 C93.4868,30.4371 93.4413,30.7359 93.4158,31.0368 C93.707,31.4852 93.4851,31.9428 93.388,32.4005 C93.3519,32.4959 93.3361,32.5979 93.3417,32.6998 C93.3473,32.8016 93.3741,32.9012 93.4204,32.9922 C93.4435,33.0245 93.4504,33.1101 93.4204,33.1286 C93.0898,33.4429 93.2863,33.7179 93.4389,33.9953 L93.4643,34.0323 L93.425,34.0207 C93.5683,34.4437 93.5059,34.9129 93.6562,35.3451 C93.7579,35.6364 93.8526,35.8213 94.1624,35.8767 C94.319,35.9264 94.4585,36.0194 94.5646,36.1449 C94.8743,36.4407 96.0278,36.9307 96.1642,37.3537 C96.259,37.6258 96.4576,37.8493 96.7166,37.9755 C97.0094,38.1371 97.3196,38.2651 97.6412,38.3568 C97.7661,38.3984 98.8941,38.4192 99.0073,38.3406 L99.1275,38.3152 C99.5529,38.2391 99.9648,38.1013 100.35,37.9061 C101.862,37.2612 103.013,35.8375 103.586,35.3636 C103.677,35.2813 103.761,35.1925 103.838,35.0978 C104.665,34.1732 105.401,33.1708 106.034,32.1046 C106.266,31.714 106.552,31.328 106.522,30.8265 C106.693,30.8265 106.823,30.7687 106.846,30.5953 C106.883,30.3272 106.894,30.0568 106.931,29.7887 C106.931,29.7771 107.798,27.0798 107.833,27.015 C107.833,26.8463 107.849,26.6776 107.856,26.5065 C107.886,26.8163 107.907,26.9989 107.909,27.015 C107.982,27.3937 108.103,27.7618 108.267,28.1106 C108.324,28.2466 108.349,28.3935 108.341,28.5405 C108.314,28.8063 108.459,29.0028 108.492,29.2339 C108.524,29.4651 108.522,29.7632 108.535,30.0568 L109.079,30.1076 C109.199,30.5052 109.164,30.9397 109.342,31.2933 C109.369,31.3472 109.4,31.3983 109.437,31.4459 C109.585,31.7533 109.555,32.174 109.899,32.3704 C109.893,32.4044 109.879,32.4366 109.86,32.4652 C109.751,32.5808 109.816,32.6963 109.848,32.8027 C110.002,33.3528 110.162,33.9029 110.327,34.453 C110.469,34.8516 110.578,35.2613 110.653,35.678 C110.768,36.7296 111.219,37.601 111.7,38.4516 C111.739,38.5232 111.834,38.6134 111.899,38.6041 C112.685,39.0826 113.348,38.6041 113.538,38.5787 C113.602,38.5787 114.446,38.1765 114.506,38.1488 C115.211,37.6103 115.865,37.3837 116.478,36.6996 L116.436,36.7227 Z M95.6186,35.3798 C95.6048,35.3636 95.5724,35.3451 95.5747,35.3313 C95.5862,35.2864 95.6009,35.2423 95.6186,35.1995 C95.6441,35.2273 95.6857,35.255 95.6811,35.2804 C95.6764,35.3058 95.6487,35.3475 95.6256,35.3798 L95.6186,35.3798 Z M106.483,24.9787 C106.441,24.9787 106.404,24.8886 106.388,24.8331 C106.372,24.7777 106.42,24.7522 106.437,24.7106 C106.504,24.7476 106.568,24.7823 106.668,24.847 C106.587,24.9071 106.529,24.9764 106.492,24.9626 L106.483,24.9787 Z M108.748,27.7524 L108.993,27.6114 L108.993,27.8702 L108.748,27.7524 Z M109.629,30.9166 C109.601,30.9166 109.59,30.8542 109.571,30.8195 C109.608,30.808 109.65,30.7802 109.682,30.7872 C109.714,30.7941 109.714,30.8473 109.728,30.8796 C109.705,30.8727 109.663,30.9073 109.638,30.8958 L109.629,30.9166 Z M110.553,33.6347 C110.542,33.6347 110.509,33.6047 110.509,33.5885 C110.509,33.5723 110.54,33.533 110.551,33.5354 C110.592,33.5457 110.631,33.5597 110.669,33.577 C110.635,33.5921 110.601,33.6045 110.565,33.6139 L110.553,33.6347 Z M110.868,28.9543 C110.854,28.9404 110.824,28.9173 110.826,28.908 C110.842,28.8717 110.862,28.8369 110.884,28.804 C110.9,28.8179 110.935,28.8387 110.932,28.8433 C110.93,28.8479 110.902,28.8919 110.879,28.9335 L110.868,28.9543 Z M112.509,37.4207 C112.446,37.3786 112.386,37.3331 112.329,37.2844 C112.329,37.2844 112.329,37.2474 112.329,37.2289 C112.366,37.215 112.421,37.178 112.435,37.1919 C112.485,37.2505 112.529,37.314 112.567,37.3814 C112.567,37.3814 112.527,37.4046 112.521,37.4022 L112.509,37.4207 Z M112.828,32.0122 C112.803,31.9832 112.783,31.9514 112.766,31.9174 C112.766,31.9012 112.779,31.8735 112.789,31.8504 L112.886,31.9105 L112.828,32.0122 Z M113.521,38.4054 C113.451,38.2891 113.39,38.1669 113.341,38.0402 C113.33,38.0101 113.441,37.9246 113.496,37.8645 C113.524,37.8992 113.582,37.9362 113.577,37.9708 C113.579,38.098 113.556,38.2436 113.535,38.3869 L113.521,38.4054 Z M128.932,36.9538 C128.79,37.0229 128.64,37.0771 128.486,37.1156 C128.037,37.2099 127.619,37.4122 127.266,37.705 C127.033,37.8738 126.791,38.0282 126.54,38.1673 C126.131,38.3984 126.022,38.3984 125.694,38.061 C125.615,37.9846 125.542,37.9018 125.477,37.8137 C125.398,37.6806 125.309,37.5546 125.208,37.4369 C125.104,37.3521 124.989,37.2806 124.866,37.2243 C124.866,37.0186 124.908,36.8521 124.853,36.762 C124.601,36.3025 124.384,35.8251 124.203,35.3336 C124.157,35.2296 124.136,35.0863 124.06,35.0285 C123.757,34.7973 123.688,34.4229 123.546,34.0878 C123.387,33.7064 123.248,33.3135 123.07,32.9436 C122.952,32.6986 122.735,32.5114 122.65,32.2502 C122.502,31.8088 122.097,31.5568 122.037,31.053 C122.023,30.9374 121.885,30.8334 121.783,30.7525 C121.607,30.6019 121.494,30.3907 121.466,30.1608 C121.39,29.7655 121.311,29.3726 121.235,28.9751 C121.094,28.3508 120.985,27.7197 120.909,27.0844 C120.851,26.3401 120.615,25.6537 120.484,24.9325 C120.484,24.8978 120.484,24.3547 120.407,24.29 C120.25,24.3084 119.173,25.1151 119,25.1914 C118.172,25.5543 117.747,25.8963 116.97,26.3471 C116.776,27.0173 117.319,26.5782 117.386,27.1006 C117.426,27.1163 117.461,27.1441 117.484,27.1801 C117.508,27.2162 117.52,27.2586 117.518,27.3016 C117.518,27.5975 117.534,27.8934 117.55,28.1892 L117.55,28.1985 C117.55,28.2146 117.55,28.2308 117.55,28.2493 C117.55,28.2678 117.55,28.2817 117.55,28.3001 L117.55,28.3972 C117.55,28.455 117.55,28.5105 117.55,28.566 L117.571,28.7971 C117.571,28.8734 117.585,28.9496 117.594,29.0282 C117.604,29.1068 117.615,29.2224 117.624,29.3171 C117.634,29.4119 117.643,29.4558 117.65,29.5229 L117.671,29.6823 L117.698,29.8788 L117.726,30.0568 C117.726,30.1215 117.745,30.1862 117.756,30.2509 C117.768,30.3156 117.782,30.4035 117.795,30.4821 C117.809,30.5606 117.821,30.6323 117.835,30.7132 L117.869,30.9004 C117.883,30.979 117.899,31.0576 117.916,31.1316 C117.932,31.2055 117.941,31.261 117.955,31.3257 C117.969,31.3904 117.983,31.4621 117.999,31.5291 C118.015,31.5961 118.034,31.6932 118.052,31.7764 C118.07,31.8596 118.087,31.9313 118.105,32.0075 L118.161,32.2387 C118.179,32.3173 118.2,32.3959 118.218,32.4698 C118.237,32.5438 118.253,32.6062 118.272,32.6732 C118.29,32.7402 118.302,32.7865 118.316,32.8443 L118.371,33.0453 L118.413,33.2002 L118.44,33.295 L118.454,33.3458 L118.454,33.362 L118.454,33.3759 C119.12,35.5769 119.912,37.7378 120.826,39.8476 C120.854,39.8886 120.876,39.9328 120.893,39.9794 C120.955,40.1597 121.001,40.3353 121.212,40.4139 C121.261,40.3314 121.337,40.2681 121.427,40.2349 C121.517,40.2016 121.616,40.2004 121.707,40.2313 C121.549,40.5457 121.707,40.823 121.725,41.1119 C121.888,41.1788 122.048,41.256 122.201,41.3431 C122.29,41.4029 122.393,41.4378 122.5,41.4439 C122.607,41.45 122.714,41.4271 122.809,41.3778 C123.093,41.2553 123.412,41.2252 123.669,41.0565 C123.926,40.8878 124.272,40.9201 124.55,40.7121 C124.813,40.5534 125.089,40.4159 125.375,40.3007 C125.597,40.197 125.807,40.0691 126.001,39.9193 C126.52,39.499 127.06,39.1063 127.619,38.7428 C128.107,38.3784 128.526,37.9299 128.856,37.4184 C128.928,37.3632 128.977,37.2833 128.994,37.1942 C129.01,37.105 128.993,37.0128 128.946,36.9353 L128.932,36.9538 Z M121.767,40.2336 C121.75,40.1805 121.737,40.125 121.72,40.0695 C121.753,40.0553 121.787,40.0452 121.822,40.0395 C121.838,40.0395 121.857,40.0557 121.873,40.0672 C121.852,40.0926 121.831,40.1181 121.813,40.1458 C121.797,40.1687 121.782,40.1926 121.769,40.2175 L121.767,40.2336 Z M122.076,41.0172 C121.917,40.9363 121.889,40.8485 121.827,40.3492 L122.428,40.8762 C122.326,41.0796 122.192,41.0542 122.079,40.9987 L122.076,41.0172 Z M122.691,41.1166 C122.677,41.1166 122.652,41.0981 122.652,41.0888 C122.656,41.0446 122.662,41.0007 122.67,40.9571 C122.684,40.9571 122.707,40.9779 122.707,40.9871 C122.707,41.0126 122.698,41.0565 122.694,41.0981 L122.691,41.1166 Z M123.301,39.4501 C123.301,39.4501 123.278,39.42 123.267,39.4062 C123.296,39.3869 123.327,39.3706 123.359,39.3576 C123.359,39.3576 123.385,39.3831 123.396,39.3969 C123.366,39.4106 123.335,39.4222 123.304,39.4316 L123.301,39.4501 Z M123.951,35.9415 C123.923,35.9234 123.898,35.9024 123.875,35.8791 C123.875,35.8606 123.896,35.8398 123.905,35.8213 L123.988,35.8999 C123.976,35.8976 123.958,35.9253 123.953,35.923 L123.951,35.9415 Z" id="Shape"></path>
            <polygon id="Path" points="58.2387 48.818 54.9864 58.2183 53.6966 59.1428 51.1169 51.0531 49.1105 58.2321 49.1105 58.246 47.8207 59.1497 44.3811 49.4629 45.671 48.5383 48.5812 56.7344 50.6014 49.4421 51.8913 48.5383 54.5125 56.7644 57.2494 48.8249"></polygon>
            <path d="M63.0031,55.5116 L58.8193,55.5116 C59.136,57.1156 60.6962,58.2066 62.3027,58.1627 C62.8123,58.144 63.3114,58.0122 63.7636,57.7767 C63.4243,58.1649 63.0056,58.4757 62.5359,58.6882 C62.0661,58.9008 61.5562,59.01 61.0407,59.0086133 C59.2631,59.0086133 57.5433,57.7328 57.5572,55.6826 C57.5718,55.0291 57.7762,54.3939 58.1456,53.8547 C58.515,53.3154 59.0334,52.8952 59.6376,52.6455 C59.062,53.147 58.7615,54.0323 58.7615,54.8667 C58.7577,55.0831 58.777,55.2993 58.8193,55.5116 L60.0097,54.6818 L63.0748,54.6818 C62.9615,52.8905 61.2695,51.9082 59.6376,52.6455 C59.8839,52.3128 60.2028,52.0406 60.5701,51.8496 C60.9374,51.6585 61.3434,51.5537 61.7572,51.543 C63.2181,51.543 64.5657,52.7888 64.1936,54.6818 L63.0031,55.5116 Z" id="Path"></path>
            <polygon id="Path" points="66.5607 47.6138 66.5607 58.8492 65.1852 58.8492 65.1852 48.5892"></polygon>
            <path d="M72.5657,57.9717 C73.1181,57.9775 73.6636,57.8498 74.156,57.5995 C73.8038,57.9852 73.3755,58.2938 72.8981,58.5058 C72.4207,58.7178 71.9046,58.8287 71.3822,58.8315 C70.605,58.8603 69.8426,58.6138 69.2295,58.1355 C68.6163,57.6572 68.1917,56.9777 68.0306,56.2169 C67.8695,55.4562 67.9821,54.6629 68.3488,53.9771 C68.7154,53.2913 69.3124,52.757 70.0346,52.4683 C69.4613,52.9699 69.1608,53.8551 69.1608,54.6895 C69.1423,56.5247 70.6888,57.9578 72.5657,57.9717 Z M70.023,52.4683 C70.4995,51.8745 71.1785,51.4775 71.9296,51.3534 C72.6808,51.2292 73.4514,51.3868 74.0936,51.7957 L72.8893,52.6417 C72.4659,52.3743 71.9818,52.2182 71.4819,52.1879 C70.982,52.1576 70.4826,52.254 70.03,52.4683 L70.023,52.4683 Z" id="Shape"></path>
            <path d="M78.9324,57.9609 C79.396,57.954 79.8538,57.8566 80.28,57.6743 C79.9541,58.0522 79.5473,58.3519 79.0898,58.5514 C78.6323,58.7508 78.1359,58.8448 77.6371,58.8264 C77.1384,58.8081 76.6502,58.6778 76.2086,58.4453 C75.767,58.2128 75.3834,57.8839 75.0861,57.4831 C74.7888,57.0823 74.5854,56.6198 74.4911,56.1297 C74.3967,55.6397 74.4137,55.1347 74.5409,54.6522 C74.6681,54.1696 74.9021,53.7219 75.2258,53.342 C75.5494,52.9621 75.9543,52.6599 76.4105,52.4576 C75.9968,52.9413 75.73,53.5332 75.6418,54.1636 C75.5537,54.794 75.6477,55.4364 75.9129,56.015 C76.178,56.5937 76.6032,57.0844 77.1383,57.4292 C77.6733,57.774 78.2959,57.9585 78.9324,57.9609 Z M82.2587,54.6349 C82.2567,55.2783 82.0689,55.9074 81.7179,56.4465 C81.3669,56.9857 80.8676,57.4121 80.28,57.6743 C80.6937,57.1908 80.9604,56.599 81.0487,55.9689 C81.1369,55.3387 81.0431,54.6965 80.7782,54.1179 C80.5133,53.5394 80.0885,53.0487 79.5538,52.7037 C79.0191,52.3587 78.3968,52.1739 77.7605,52.171 C77.296,52.17 76.8367,52.2677 76.4129,52.4576 C76.8579,51.946 77.4484,51.5823 78.1056,51.415 C78.7628,51.2477 79.4554,51.2849 80.0909,51.5215 C80.7264,51.7581 81.2746,52.1829 81.6624,52.7392 C82.0501,53.2955 82.259,53.9568 82.261,54.6349 L82.2587,54.6349 Z" id="Shape"></path>
            <path d="M84.5901,51.5408 L84.5901,58.706 L83.2148,58.706 L83.2148,51.5408 L84.5901,51.5408 Z M89.1323,53.6765 L89.1323,58.706 L87.7569,58.706 L87.7569,54.4924 C87.7569,53.0178 87.0126,52.1141 86.0233,52.1141 C85.4952,52.141 84.9911,52.3427 84.5901,52.6873 C85.3206,51.7419 86.2244,51.312 87.0403,51.312 C88.1869,51.312 89.1323,52.1811 89.1323,53.6765 Z M93.5242,53.6765 L93.5242,58.706 L92.1488,58.706 L92.1488,54.4924 C92.1488,53.0178 91.4045,52.1141 90.4152,52.1141 C89.8871,52.141 89.383,52.3427 88.982,52.6873 C89.7125,51.7419 90.6163,51.312 91.4323,51.312 C92.5788,51.312 93.5173,52.1811 93.5173,53.6765 L93.5242,53.6765 Z" id="Shape"></path>
            <path d="M99.7562,55.5116 L95.5723,55.5116 C95.8867,57.1156 97.4493,58.2066 99.0558,58.1627 C99.5654,58.144 100.064,58.0122 100.517,57.7767 C100.177,58.1649 99.7587,58.4757 99.2889,58.6882 C98.8192,58.9008 98.3093,59.01 97.7937,59.0086133 C96.0161,59.0086133 94.2964,57.7328 94.3102,55.6826 C94.3251,55.0292 94.5297,54.3941 94.899,53.8549 C95.2684,53.3157 95.7866,52.8955 96.3906,52.6455 C95.8173,53.147 95.5168,54.0323 95.5168,54.8667 C95.513,55.0831 95.5324,55.2993 95.5746,55.5116 L96.7651,54.6818 L99.8371,54.6818 C99.7238,52.8905 98.0318,51.9082 96.3975,52.6455 C96.6445,52.3129 96.9639,52.0408 97.3315,51.8498 C97.6991,51.6588 98.1054,51.5538 98.5195,51.543 C99.9804,51.543 101.328,52.7888 100.956,54.6818 L99.7562,55.5116 Z" id="Path"></path>
            <path d="M78.8647,69.7749 C78.6601,70.1369 78.3617,70.4371 78.0009,70.6437 C77.64,70.8504 77.2301,70.9558 76.8144,70.9491 C75.5546,70.9491 74.4635,69.8743 74.4635,68.3419 L74.4635,64.4287 L73.2754,64.4287 L75.8412,62.6375 L75.8412,63.6105 L78.7329,63.6105 L77.5425,64.4542 L75.8528,64.4542 L75.8528,67.5352 C75.8528,69.0838 76.5971,70.0777 77.7135,70.0777 C78.1149,70.0629 78.508,69.9595 78.8647,69.7749 Z" id="Path"></path>
            <path d="M83.5349,69.9774 C83.9987,69.9716 84.4566,69.8742 84.8826,69.6908 C84.5552,70.0644 84.1484,70.36 83.6919,70.5558 C83.2353,70.7516 82.7408,70.8427 82.2444,70.8223 C81.7481,70.802 81.2626,70.6708 80.8237,70.4383 C80.3847,70.2058 80.0034,69.8779 79.7077,69.4788 C79.412,69.0796 79.2095,68.6193 79.115,68.1317 C79.0206,67.6441 79.0365,67.1415 79.1617,66.6608 C79.2869,66.1801 79.5182,65.7336 79.8386,65.354 C80.1589,64.9744 80.5603,64.6714 81.0131,64.4671 C80.599,64.9506 80.3321,65.5424 80.2437,66.1727 C80.1554,66.8031 80.2494,67.4455 80.5147,68.0241 C80.7799,68.6027 81.2053,69.0932 81.7405,69.4377 C82.2757,69.7822 82.8984,69.9663 83.5349,69.9682 L83.5349,69.9774 Z M86.8612,66.6537 C86.8591,67.2967 86.6712,67.9254 86.3202,68.4642 C85.9691,69.003 85.4699,69.429 84.8826,69.6908 C85.2966,69.2074 85.5636,68.6155 85.6519,67.9852 C85.7402,67.3549 85.6462,66.7125 85.381,66.1339 C85.1157,65.5553 84.6903,65.0647 84.1551,64.7202 C83.6199,64.3757 82.9972,64.1916 82.3607,64.1898 C81.8963,64.1888 81.4369,64.2865 81.0131,64.4764 C81.4581,63.9648 82.0487,63.6011 82.7058,63.4338 C83.363,63.2665 84.0556,63.3037 84.6911,63.5403 C85.3266,63.7769 85.8748,64.2017 86.2626,64.758 C86.6503,65.3143 86.8592,65.9756 86.8612,66.6537 Z" id="Shape"></path>
            <polygon id="Path" points="98.233 70.9214 96.571 67.0545 92.7293 67.0545 94.0191 66.13 96.1688 66.13 94.5507 62.3463 91.34 70.6279 90.3807 70.6279 94.063 61.2276 95.3251 60.3262 97.847 66.13 99.5228 70.013"></polygon>
            <path d="M101.927,63.4857 L101.927,70.6509 L100.551,70.6509 L100.551,63.4857 L101.927,63.4857 Z M103.804,63.3424 C103.416,63.3489 103.037,63.4596 102.707,63.663 C102.376,63.8663 102.107,64.1548 101.927,64.4981 C102.264,64.3021 102.662,64.2408 103.043,64.3265 C103.423,64.4123 103.757,64.6387 103.977,64.9603 L105.253,64.0589 C105.085,63.8322 104.867,63.6482 104.615,63.5217 C104.363,63.3952 104.085,63.3298 103.804,63.3307887 L103.804,63.3424 Z" id="Shape"></path>
            <path d="M108.588,69.8881 C108.986,69.8927 109.376,69.7775 109.707,69.5576 C109.46,69.9171 109.128,70.2105 108.74,70.412 C108.353,70.6135 107.922,70.7169 107.486,70.7133 C106.33,70.7133 105.406,69.8696 105.406,68.8526 C105.42,68.4391 105.568,68.0413 105.828,67.7192 C106.087,67.397 106.445,67.1678 106.846,67.0659 C106.642,67.3496 106.532,67.6898 106.531,68.039 C106.54,69.1577 107.539,69.8881 108.588,69.8881 Z M111.083,65.9588 L111.083,70.7017 L109.707,70.7017 L109.707,67.0659 L106.846,67.0659 L108.036,66.2269 L109.654,66.2269 C109.469,64.8933 108.595,64.1467 107.507,64.1467 C106.904,64.1647 106.319,64.3487 105.815,64.6783 C106.123,64.2643 106.522,63.9272 106.982,63.6934 C107.442,63.4597 107.95,63.3355 108.466,63.3308 C109.851,63.3401 111.083,64.2577 111.083,65.9611 L111.083,65.9588 Z" id="Shape"></path>
            <path d="M117.062,69.8351 L115.874,70.6649 L112.34,70.6649 L112.34,59.6328 L113.727,59.6328 L113.727,69.8351 L117.062,69.8351 Z M119.043,66.6547 C119.027,67.313 118.834,67.9548 118.487,68.5139 C118.139,69.073 117.648,69.5291 117.065,69.8351 C117.668,69.1902 117.869,68.3027 117.869,67.4706 C117.869,65.7787 116.822,64.1885 115.075,64.1885 C114.605,64.1708 114.139,64.2802 113.727,64.5051 C114.018,64.1379 114.388,63.8413 114.81,63.6375 C115.232,63.4338 115.695,63.3282 116.163,63.3286982 C117.724,63.3286982 119.043,64.6692 119.043,66.6547 Z" id="Shape"></path>
            <path d="M120.928,60.3262 L122.116,61.0566 L120.928,61.9025 L119.737,61.1559 L120.928,60.3262 Z M121.621,63.4904 L121.621,70.6556 L120.234,70.6556 L120.234,63.4904 L121.621,63.4904 Z" id="Shape"></path>
            <path d="M125.927,69.8881 C126.324,69.8938 126.713,69.7802 127.044,69.5622 C126.796,69.9219 126.464,70.2154 126.077,70.4169 C125.69,70.6184 125.259,70.7217 124.822,70.7179 C123.667,70.7179 122.742,69.8742 122.742,68.8572 C122.759,68.4425 122.911,68.0448 123.175,67.7241 C123.439,67.4035 123.799,67.1773 124.203,67.0798 C124,67.3639 123.89,67.7039 123.888,68.0529 C123.877,69.1577 124.88,69.8881 125.927,69.8881 Z M128.419,65.9588 L128.419,70.7017 L127.044,70.7017 L127.044,67.0659 L124.191,67.0659 L125.382,66.2269 L127,66.2269 C126.812,64.8933 125.939,64.1467 124.85,64.1467 C124.248,64.1647 123.662,64.3487 123.158,64.6783 C123.466,64.2643 123.866,63.9272 124.325,63.6934 C124.785,63.4597 125.293,63.3355 125.809,63.3308 C127.187,63.3401 128.419,64.2577 128.419,65.9611 L128.419,65.9588 Z" id="Shape"></path>
        </g>
    </g>
</svg>